G04 Layer_Color=2752767*
%FSLAX25Y25*%
%MOIN*%
G70*
G01*
G75*
%ADD25C,0.00200*%
%ADD26C,0.00267*%
D25*
X-35800Y268200D02*
Y269800D01*
X-34200D01*
Y268200D01*
X-35800D01*
Y258200D02*
Y259800D01*
X-34200D01*
Y258200D01*
X-35800D01*
Y248200D02*
Y249800D01*
X-34200D01*
Y248200D01*
X-35800D01*
X-43300Y13700D02*
Y15300D01*
X-41700D01*
Y13700D01*
X-43300D01*
X-33300D02*
Y15300D01*
X-31700D01*
Y13700D01*
X-33300D01*
X-23300D02*
Y15300D01*
X-21700D01*
Y13700D01*
X-23300D01*
X-13300D02*
Y15300D01*
X-11700D01*
Y13700D01*
X-13300D01*
X-228300Y165200D02*
Y166800D01*
X-226700D01*
Y165200D01*
X-228300D01*
Y175200D02*
Y176800D01*
X-226700D01*
Y175200D01*
X-228300D01*
X-218300Y165200D02*
Y166800D01*
X-216700D01*
Y165200D01*
X-218300D01*
Y175200D02*
Y176800D01*
X-216700D01*
Y175200D01*
X-218300D01*
X-208300Y165200D02*
Y166800D01*
X-206700D01*
Y165200D01*
X-208300D01*
Y175200D02*
Y176800D01*
X-206700D01*
Y175200D01*
X-208300D01*
X-198300Y165200D02*
Y166800D01*
X-196700D01*
Y165200D01*
X-198300D01*
Y175200D02*
Y176800D01*
X-196700D01*
Y175200D01*
X-198300D01*
X-188300Y165200D02*
Y166800D01*
X-186700D01*
Y165200D01*
X-188300D01*
Y175200D02*
Y176800D01*
X-186700D01*
Y175200D01*
X-188300D01*
X-178300Y165200D02*
Y166800D01*
X-176700D01*
Y165200D01*
X-178300D01*
Y175200D02*
Y176800D01*
X-176700D01*
Y175200D01*
X-178300D01*
X-168300Y165200D02*
Y166800D01*
X-166700D01*
Y165200D01*
X-168300D01*
Y175200D02*
Y176800D01*
X-166700D01*
Y175200D01*
X-168300D01*
X-158300Y165200D02*
Y166800D01*
X-156700D01*
Y165200D01*
X-158300D01*
Y175200D02*
Y176800D01*
X-156700D01*
Y175200D01*
X-158300D01*
X-148300Y165200D02*
Y166800D01*
X-146700D01*
Y165200D01*
X-148300D01*
Y175200D02*
Y176800D01*
X-146700D01*
Y175200D01*
X-148300D01*
X-138300Y165200D02*
Y166800D01*
X-136700D01*
Y165200D01*
X-138300D01*
Y175200D02*
Y176800D01*
X-136700D01*
Y175200D01*
X-138300D01*
X-238300Y5200D02*
Y6800D01*
X-236700D01*
Y5200D01*
X-238300D01*
X-248300D02*
Y6800D01*
X-246700D01*
Y5200D01*
X-248300D01*
X-238300Y15200D02*
Y16800D01*
X-236700D01*
Y15200D01*
X-238300D01*
X-248300D02*
Y16800D01*
X-246700D01*
Y15200D01*
X-248300D01*
X-238300Y25200D02*
Y26800D01*
X-236700D01*
Y25200D01*
X-238300D01*
X-248300D02*
Y26800D01*
X-246700D01*
Y25200D01*
X-248300D01*
X-238300Y35200D02*
Y36800D01*
X-236700D01*
Y35200D01*
X-238300D01*
X-248300D02*
Y36800D01*
X-246700D01*
Y35200D01*
X-248300D01*
X-238300Y45200D02*
Y46800D01*
X-236700D01*
Y45200D01*
X-238300D01*
X-248300D02*
Y46800D01*
X-246700D01*
Y45200D01*
X-248300D01*
X-238300Y55200D02*
Y56800D01*
X-236700D01*
Y55200D01*
X-238300D01*
X-248300D02*
Y56800D01*
X-246700D01*
Y55200D01*
X-248300D01*
X-238300Y65200D02*
Y66800D01*
X-236700D01*
Y65200D01*
X-238300D01*
X-248300D02*
Y66800D01*
X-246700D01*
Y65200D01*
X-248300D01*
X-238300Y75200D02*
Y76800D01*
X-236700D01*
Y75200D01*
X-238300D01*
X-248300D02*
Y76800D01*
X-246700D01*
Y75200D01*
X-248300D01*
X-238300Y85200D02*
Y86800D01*
X-236700D01*
Y85200D01*
X-238300D01*
X-248300D02*
Y86800D01*
X-246700D01*
Y85200D01*
X-248300D01*
X-238300Y95200D02*
Y96800D01*
X-236700D01*
Y95200D01*
X-238300D01*
X-248300D02*
Y96800D01*
X-246700D01*
Y95200D01*
X-248300D01*
X-238300Y105200D02*
Y106800D01*
X-236700D01*
Y105200D01*
X-238300D01*
X-248300D02*
Y106800D01*
X-246700D01*
Y105200D01*
X-248300D01*
X-238300Y115200D02*
Y116800D01*
X-236700D01*
Y115200D01*
X-238300D01*
X-248300D02*
Y116800D01*
X-246700D01*
Y115200D01*
X-248300D01*
X-238300Y125200D02*
Y126800D01*
X-236700D01*
Y125200D01*
X-238300D01*
X-248300D02*
Y126800D01*
X-246700D01*
Y125200D01*
X-248300D01*
X-238300Y135200D02*
Y136800D01*
X-236700D01*
Y135200D01*
X-238300D01*
X-248300D02*
Y136800D01*
X-246700D01*
Y135200D01*
X-248300D01*
X-238300Y145200D02*
Y146800D01*
X-236700D01*
Y145200D01*
X-238300D01*
X-248300D02*
Y146800D01*
X-246700D01*
Y145200D01*
X-248300D01*
X-238300Y155200D02*
Y156800D01*
X-236700D01*
Y155200D01*
X-238300D01*
X-248300D02*
Y156800D01*
X-246700D01*
Y155200D01*
X-248300D01*
X-238300Y165200D02*
Y166800D01*
X-236700D01*
Y165200D01*
X-238300D01*
X-248300D02*
Y166800D01*
X-246700D01*
Y165200D01*
X-248300D01*
X-238300Y175200D02*
Y176800D01*
X-236700D01*
Y175200D01*
X-238300D01*
X-248300D02*
Y176800D01*
X-246700D01*
Y175200D01*
X-248300D01*
X-128300Y5200D02*
Y6800D01*
X-126700D01*
Y5200D01*
X-128300D01*
X-118300D02*
Y6800D01*
X-116700D01*
Y5200D01*
X-118300D01*
X-128300Y15200D02*
Y16800D01*
X-126700D01*
Y15200D01*
X-128300D01*
X-118300D02*
Y16800D01*
X-116700D01*
Y15200D01*
X-118300D01*
X-128300Y25200D02*
Y26800D01*
X-126700D01*
Y25200D01*
X-128300D01*
X-118300D02*
Y26800D01*
X-116700D01*
Y25200D01*
X-118300D01*
X-128300Y35200D02*
Y36800D01*
X-126700D01*
Y35200D01*
X-128300D01*
X-118300D02*
Y36800D01*
X-116700D01*
Y35200D01*
X-118300D01*
X-128300Y45200D02*
Y46800D01*
X-126700D01*
Y45200D01*
X-128300D01*
X-118300D02*
Y46800D01*
X-116700D01*
Y45200D01*
X-118300D01*
X-128300Y55200D02*
Y56800D01*
X-126700D01*
Y55200D01*
X-128300D01*
X-118300D02*
Y56800D01*
X-116700D01*
Y55200D01*
X-118300D01*
X-128300Y65200D02*
Y66800D01*
X-126700D01*
Y65200D01*
X-128300D01*
X-118300D02*
Y66800D01*
X-116700D01*
Y65200D01*
X-118300D01*
X-128300Y75200D02*
Y76800D01*
X-126700D01*
Y75200D01*
X-128300D01*
X-118300D02*
Y76800D01*
X-116700D01*
Y75200D01*
X-118300D01*
X-128300Y85200D02*
Y86800D01*
X-126700D01*
Y85200D01*
X-128300D01*
X-118300D02*
Y86800D01*
X-116700D01*
Y85200D01*
X-118300D01*
X-128300Y95200D02*
Y96800D01*
X-126700D01*
Y95200D01*
X-128300D01*
X-118300D02*
Y96800D01*
X-116700D01*
Y95200D01*
X-118300D01*
X-128300Y105200D02*
Y106800D01*
X-126700D01*
Y105200D01*
X-128300D01*
X-118300D02*
Y106800D01*
X-116700D01*
Y105200D01*
X-118300D01*
X-128300Y115200D02*
Y116800D01*
X-126700D01*
Y115200D01*
X-128300D01*
X-118300D02*
Y116800D01*
X-116700D01*
Y115200D01*
X-118300D01*
X-128300Y125200D02*
Y126800D01*
X-126700D01*
Y125200D01*
X-128300D01*
X-118300D02*
Y126800D01*
X-116700D01*
Y125200D01*
X-118300D01*
X-128300Y135200D02*
Y136800D01*
X-126700D01*
Y135200D01*
X-128300D01*
X-118300D02*
Y136800D01*
X-116700D01*
Y135200D01*
X-118300D01*
X-128300Y145200D02*
Y146800D01*
X-126700D01*
Y145200D01*
X-128300D01*
X-118300D02*
Y146800D01*
X-116700D01*
Y145200D01*
X-118300D01*
X-128300Y155200D02*
Y156800D01*
X-126700D01*
Y155200D01*
X-128300D01*
X-118300D02*
Y156800D01*
X-116700D01*
Y155200D01*
X-118300D01*
X-128300Y165200D02*
Y166800D01*
X-126700D01*
Y165200D01*
X-128300D01*
X-118300D02*
Y166800D01*
X-116700D01*
Y165200D01*
X-118300D01*
X-128300Y175200D02*
Y176800D01*
X-126700D01*
Y175200D01*
X-128300D01*
X-118300D02*
Y176800D01*
X-116700D01*
Y175200D01*
X-118300D01*
X-168300Y340200D02*
Y341800D01*
X-166700D01*
Y340200D01*
X-168300D01*
Y330200D02*
Y331800D01*
X-166700D01*
Y330200D01*
X-168300D01*
X-178300Y340200D02*
Y341800D01*
X-176700D01*
Y340200D01*
X-178300D01*
Y330200D02*
Y331800D01*
X-176700D01*
Y330200D01*
X-178300D01*
X-188300Y340200D02*
Y341800D01*
X-186700D01*
Y340200D01*
X-188300D01*
Y330200D02*
Y331800D01*
X-186700D01*
Y330200D01*
X-188300D01*
X-198300Y340200D02*
Y341800D01*
X-196700D01*
Y340200D01*
X-198300D01*
Y330200D02*
Y331800D01*
X-196700D01*
Y330200D01*
X-198300D01*
X-208300Y340200D02*
Y341800D01*
X-206700D01*
Y340200D01*
X-208300D01*
Y330200D02*
Y331800D01*
X-206700D01*
Y330200D01*
X-208300D01*
X-218300Y340200D02*
Y341800D01*
X-216700D01*
Y340200D01*
X-218300D01*
Y330200D02*
Y331800D01*
X-216700D01*
Y330200D01*
X-218300D01*
X-228300Y340200D02*
Y341800D01*
X-226700D01*
Y340200D01*
X-228300D01*
Y330200D02*
Y331800D01*
X-226700D01*
Y330200D01*
X-228300D01*
X-238300Y340200D02*
Y341800D01*
X-236700D01*
Y340200D01*
X-238300D01*
Y330200D02*
Y331800D01*
X-236700D01*
Y330200D01*
X-238300D01*
X-248300Y340200D02*
Y341800D01*
X-246700D01*
Y340200D01*
X-248300D01*
Y330200D02*
Y331800D01*
X-246700D01*
Y330200D01*
X-248300D01*
X-258300Y340200D02*
Y341800D01*
X-256700D01*
Y340200D01*
X-258300D01*
Y330200D02*
Y331800D01*
X-256700D01*
Y330200D01*
X-258300D01*
X-268300Y340200D02*
Y341800D01*
X-266700D01*
Y340200D01*
X-268300D01*
Y330200D02*
Y331800D01*
X-266700D01*
Y330200D01*
X-268300D01*
X-278300Y340200D02*
Y341800D01*
X-276700D01*
Y340200D01*
X-278300D01*
Y330200D02*
Y331800D01*
X-276700D01*
Y330200D01*
X-278300D01*
X-288300Y340200D02*
Y341800D01*
X-286700D01*
Y340200D01*
X-288300D01*
Y330200D02*
Y331800D01*
X-286700D01*
Y330200D01*
X-288300D01*
X-298300Y340200D02*
Y341800D01*
X-296700D01*
Y340200D01*
X-298300D01*
Y330200D02*
Y331800D01*
X-296700D01*
Y330200D01*
X-298300D01*
X-308300Y340200D02*
Y341800D01*
X-306700D01*
Y340200D01*
X-308300D01*
Y330200D02*
Y331800D01*
X-306700D01*
Y330200D01*
X-308300D01*
X-318300Y340200D02*
Y341800D01*
X-316700D01*
Y340200D01*
X-318300D01*
Y330200D02*
Y331800D01*
X-316700D01*
Y330200D01*
X-318300D01*
X-328300Y340200D02*
Y341800D01*
X-326700D01*
Y340200D01*
X-328300D01*
Y330200D02*
Y331800D01*
X-326700D01*
Y330200D01*
X-328300D01*
X-56300Y326200D02*
Y327800D01*
X-54700D01*
Y326200D01*
X-56300D01*
X-66300D02*
Y327800D01*
X-64700D01*
Y326200D01*
X-66300D01*
X-76300D02*
Y327800D01*
X-74700D01*
Y326200D01*
X-76300D01*
X-86300D02*
Y327800D01*
X-84700D01*
Y326200D01*
X-86300D01*
X-96300D02*
Y327800D01*
X-94700D01*
Y326200D01*
X-96300D01*
X-106300D02*
Y327800D01*
X-104700D01*
Y326200D01*
X-106300D01*
X-92800Y93200D02*
Y94800D01*
X-91200D01*
Y93200D01*
X-92800D01*
X-82800D02*
Y94800D01*
X-81200D01*
Y93200D01*
X-82800D01*
X-92800Y103200D02*
Y104800D01*
X-91200D01*
Y103200D01*
X-92800D01*
X-82800D02*
Y104800D01*
X-81200D01*
Y103200D01*
X-82800D01*
X-92800Y113200D02*
Y114800D01*
X-91200D01*
Y113200D01*
X-92800D01*
X-82800D02*
Y114800D01*
X-81200D01*
Y113200D01*
X-82800D01*
X-92800Y123200D02*
Y124800D01*
X-91200D01*
Y123200D01*
X-92800D01*
X-82800D02*
Y124800D01*
X-81200D01*
Y123200D01*
X-82800D01*
X-92800Y189700D02*
Y191300D01*
X-91200D01*
Y189700D01*
X-92800D01*
X-82800D02*
Y191300D01*
X-81200D01*
Y189700D01*
X-82800D01*
X-72800D02*
Y191300D01*
X-71200D01*
Y189700D01*
X-72800D01*
X-62800D02*
Y191300D01*
X-61200D01*
Y189700D01*
X-62800D01*
X-52800D02*
Y191300D01*
X-51200D01*
Y189700D01*
X-52800D01*
X-42800D02*
Y191300D01*
X-41200D01*
Y189700D01*
X-42800D01*
X-32800D02*
Y191300D01*
X-31200D01*
Y189700D01*
X-32800D01*
X-22800D02*
Y191300D01*
X-21200D01*
Y189700D01*
X-22800D01*
X-1425Y168625D02*
X-2225Y170225D01*
X-625D01*
X-1425Y168625D01*
X-56000Y35200D02*
X-56800Y36800D01*
X-55200D01*
X-56000Y35200D01*
Y50200D02*
X-56800Y51800D01*
X-55200D01*
X-56000Y50200D01*
X-18000Y156200D02*
X-18800Y157800D01*
X-17200D01*
X-18000Y156200D01*
X-4500D02*
X-5300Y157800D01*
X-3700D01*
X-4500Y156200D01*
X-87000Y161700D02*
X-87800Y163300D01*
X-86200D01*
X-87000Y161700D01*
X-336000Y105700D02*
X-336800Y107300D01*
X-335200D01*
X-336000Y105700D01*
X-292500D02*
X-293300Y107300D01*
X-291700D01*
X-292500Y105700D01*
X-327500Y116200D02*
X-328300Y117800D01*
X-326700D01*
X-327500Y116200D01*
X-292500D02*
X-293300Y117800D01*
X-291700D01*
X-292500Y116200D01*
X-308000Y35200D02*
X-308800Y36800D01*
X-307200D01*
X-308000Y35200D01*
X-290500D02*
X-291300Y36800D01*
X-289700D01*
X-290500Y35200D01*
X-292500Y128200D02*
X-293300Y129800D01*
X-291700D01*
X-292500Y128200D01*
X-292000Y135200D02*
X-292800Y136800D01*
X-291200D01*
X-292000Y135200D01*
X-247500Y279200D02*
X-248300Y280800D01*
X-246700D01*
X-247500Y279200D01*
Y301200D02*
X-248300Y302800D01*
X-246700D01*
X-247500Y301200D01*
X-158500Y307200D02*
X-159300Y308800D01*
X-157700D01*
X-158500Y307200D01*
X-187500Y292700D02*
X-188300Y294300D01*
X-186700D01*
X-187500Y292700D01*
X-162500D02*
X-163300Y294300D01*
X-161700D01*
X-162500Y292700D01*
X-207500Y307700D02*
X-208300Y309300D01*
X-206700D01*
X-207500Y307700D01*
X-109000Y236700D02*
X-109800Y238300D01*
X-108200D01*
X-109000Y236700D01*
X-136500Y266200D02*
X-137300Y267800D01*
X-135700D01*
X-136500Y266200D01*
X-156000Y324200D02*
X-156800Y325800D01*
X-155200D01*
X-156000Y324200D01*
Y339200D02*
X-156800Y340800D01*
X-155200D01*
X-156000Y339200D01*
X-150000Y318200D02*
X-150800Y319800D01*
X-149200D01*
X-150000Y318200D01*
X-177500D02*
X-178300Y319800D01*
X-176700D01*
X-177500Y318200D01*
X-78000Y258200D02*
X-78800Y259800D01*
X-77200D01*
X-78000Y258200D01*
X-48500D02*
X-49300Y259800D01*
X-47700D01*
X-48500Y258200D01*
X-82000Y164200D02*
X-82800Y165800D01*
X-81200D01*
X-82000Y164200D01*
X-110500Y272700D02*
X-111300Y274300D01*
X-109700D01*
X-110500Y272700D01*
X-75500D02*
X-76300Y274300D01*
X-74700D01*
X-75500Y272700D01*
X-101500Y262200D02*
X-102300Y263800D01*
X-100700D01*
X-101500Y262200D01*
X-85500D02*
X-86300Y263800D01*
X-84700D01*
X-85500Y262200D01*
X-32500Y111200D02*
X-33300Y112800D01*
X-31700D01*
X-32500Y111200D01*
Y130200D02*
X-33300Y131800D01*
X-31700D01*
X-32500Y130200D01*
X-103500Y25200D02*
X-104300Y26800D01*
X-102700D01*
X-103500Y25200D01*
X-82000Y41200D02*
X-82800Y42800D01*
X-81200D01*
X-82000Y41200D01*
D26*
X-64200Y15500D02*
G03*
X-64200Y15500I-800J0D01*
G01*
X-74200D02*
G03*
X-74200Y15500I-800J0D01*
G01*
X-84200D02*
G03*
X-84200Y15500I-800J0D01*
G01*
X-94200D02*
G03*
X-94200Y15500I-800J0D01*
G01*
X-142900Y148700D02*
G03*
X-142900Y148700I-800J0D01*
G01*
Y138700D02*
G03*
X-142900Y138700I-800J0D01*
G01*
Y128700D02*
G03*
X-142900Y128700I-800J0D01*
G01*
Y118700D02*
G03*
X-142900Y118700I-800J0D01*
G01*
M02*
