M48
;Layer_Color=9474304
;FILE_FORMAT=2:5
INCH,TZ
;TYPE=PLATED
T1F00S00C0.01575
T2F00S00C0.03000
T3F00S00C0.03543
%
T01
X-32500Y112000
X-56000Y51000
Y36000
X-82000Y42000
X-103500Y26000
X-290500Y36000
X-308000
X-292500Y106500
Y117000
X-327500
X-336000Y106500
X-292500Y129000
X-292000Y136000
X-87000Y162500
X-82000Y165000
X-78000Y259000
X-85500Y263000
X-101500
X-110500Y273500
X-136500Y267000
X-109000Y237500
X-75500Y273500
X-48500Y259000
X-18000Y157000
X-4500
X-1425Y169425
X-32500Y131000
X-162500Y293500
X-158500Y308000
X-156000Y325000
X-150000Y319000
X-156000Y340000
X-177500Y319000
X-187500Y293500
X-207500Y308500
X-247500Y302000
Y280000
T02
X-95000Y15500
X-85000
X-75000
X-65000
X-143700Y118700
Y128700
Y138700
Y148700
T03
X-42500Y14500
X-32500
X-22500
X-12500
X-117500Y16000
Y6000
X-127500
Y16000
Y26000
X-117500
Y36000
X-127500
Y46000
X-117500
Y56000
X-127500
Y66000
X-117500
Y76000
X-127500
Y86000
X-117500
Y96000
X-127500
Y106000
X-117500
Y116000
X-127500
X-92000Y114000
Y104000
Y94000
X-82000
Y104000
Y114000
X-237500Y116000
Y106000
Y96000
Y86000
Y76000
Y66000
Y56000
Y46000
Y36000
Y26000
Y16000
Y6000
X-247500
Y16000
Y26000
Y36000
Y46000
Y56000
Y66000
Y76000
Y86000
Y96000
Y106000
Y116000
Y126000
X-237500
Y136000
X-247500
Y146000
X-237500
Y156000
X-247500
Y166000
X-237500
X-227500
Y176000
X-217500
Y166000
X-207500
Y176000
X-237500
X-247500
X-197500
Y166000
X-187500
Y176000
X-177500
Y166000
X-167500
Y176000
X-157500
Y166000
X-147500
Y176000
X-137500
Y166000
X-127500
Y156000
Y146000
Y136000
Y126000
X-117500
Y136000
Y146000
Y156000
Y166000
Y176000
X-127500
X-92000Y190500
X-82000
X-72000
X-62000
X-52000
X-82000Y124000
X-92000
X-42000Y190500
X-32000
X-22000
X-35000Y249000
Y259000
Y269000
X-55500Y327000
X-65500
X-75500
X-85500
X-95500
X-105500
X-167500Y331000
Y341000
X-177500
Y331000
X-187500
Y341000
X-197500
Y331000
X-207500
Y341000
X-217500
Y331000
X-227500
Y341000
X-237500
Y331000
X-247500
Y341000
X-257500
Y331000
X-267500
Y341000
X-277500
Y331000
X-287500
Y341000
X-297500
Y331000
X-307500
Y341000
X-317500
Y331000
X-327500
Y341000
M30
